<svg xmlns="http://www.w3.org/2000/svg" xmlns:xlink="http://www.w3.org/1999/xlink" xml:space="preserve" version="1.1" style="shape-rendering:geometricPrecision;text-rendering:geometricPrecision;image-rendering:optimizeQuality;" viewBox="0 0 260 280" x="0px" y="0px" fill-rule="evenodd" clip-rule="evenodd"><defs><style type="text/css">
   
    .fil0 {fill:black}
   
  </style></defs><g><path class="fil0" d="M102 112c-52,62 -67,84 -102,100 47,37 88,-21 130,-72l0 0 1 0c41,51 82,109 129,72 -35,-16 -50,-38 -102,-100 52,-63 67,-85 102,-100 -47,-37 -88,20 -129,72l-1 -1 0 1c-42,-52 -83,-109 -130,-72 35,15 50,37 102,100z"/></g><text x="0" y="239" fill="#000000" font-size="5px" font-weight="bold" font-family="'Helvetica Neue', Helvetica, Arial-Unicode, Arial, Sans-serif">Created by kareemovic1000</text><text x="0" y="244" fill="#000000" font-size="5px" font-weight="bold" font-family="'Helvetica Neue', Helvetica, Arial-Unicode, Arial, Sans-serif">from the Noun Project</text></svg>